<svg width="17" height="21" viewBox="0 0 17 21" fill="none" xmlns="http://www.w3.org/2000/svg">
<path fill-rule="evenodd" clip-rule="evenodd" d="M9.39328 0.25C11.9194 0.763414 13.8218 3.10805 13.8218 5.78571V10.2143C15.0448 10.2143 16.0361 11.2057 16.0361 12.4286V17.9643H10.5004V18.1786C10.5004 19.2831 9.60499 20.1786 8.50042 20.1786H8.07185C6.96728 20.1786 6.07185 19.2831 6.07185 18.1786V17.9643H0.536133V12.4286C0.536133 11.2057 1.5275 10.2143 2.75042 10.2143V5.78571C2.75042 3.10766 4.65233 0.762987 7.17899 0.25H9.39328ZM8.28613 2.46429C6.51727 2.46429 5.07137 3.84702 4.97034 5.59055L4.9647 5.78571V10.4286C4.9647 11.5331 4.06927 12.4286 2.9647 12.4286H2.75042V15.75H13.8218V12.4286H13.6076C12.503 12.4286 11.6076 11.5331 11.6076 10.4286V5.78571C11.6076 3.95134 10.1205 2.46429 8.28613 2.46429Z" fill="#333333"/>
</svg>
