<svg width="24" height="25" viewBox="0 0 24 25" fill="none" xmlns="http://www.w3.org/2000/svg">
<path d="M2.27586 24.6559C1.6875 24.6901 1.10884 24.4945 0.661899 24.1103C-0.219494 23.2237 -0.219494 21.7917 0.661899 20.905L19.9615 1.60535C20.8782 0.747541 22.3167 0.795226 23.1745 1.71195C23.9502 2.54094 23.9954 3.81512 23.2804 4.69696L3.86707 24.1103C3.42595 24.4889 2.85652 24.6842 2.27586 24.6559Z" fill="white"/>
<path d="M21.5528 24.6559C20.9565 24.6534 20.385 24.4166 19.9615 23.9967L0.661841 4.69694C-0.154723 3.74338 -0.043707 2.30833 0.90985 1.49169C1.76092 0.762861 3.01609 0.762861 3.86709 1.49169L23.2804 20.7914C24.1969 21.6494 24.2443 23.088 23.3863 24.0045C23.3521 24.0409 23.3169 24.0762 23.2804 24.1103C23.0452 24.3148 22.7705 24.4688 22.4733 24.5627C22.1761 24.6565 21.8628 24.6883 21.5528 24.6559Z" fill="white"/>
</svg>
