<svg width="19" height="16" viewBox="0 0 19 16" fill="none" xmlns="http://www.w3.org/2000/svg">
<path d="M12.1375 8.00409C12.1375 9.65409 10.8042 10.9874 9.15417 10.9874C7.50417 10.9874 6.17084 9.65409 6.17084 8.00409C6.17084 6.35409 7.50417 5.02075 9.15417 5.02075C10.8042 5.02075 12.1375 6.35409 12.1375 8.00409Z" stroke="#333333" stroke-width="1.5" stroke-linecap="round" stroke-linejoin="round"/>
<path d="M9.15417 14.8958C12.0958 14.8958 14.8375 13.1625 16.7458 10.1625C17.4958 8.98746 17.4958 7.01246 16.7458 5.83746C14.8375 2.83746 12.0958 1.10413 9.15417 1.10413C6.2125 1.10413 3.47083 2.83746 1.5625 5.83746C0.8125 7.01246 0.8125 8.98746 1.5625 10.1625C3.47083 13.1625 6.2125 14.8958 9.15417 14.8958Z" stroke="#333333" stroke-width="1.5" stroke-linecap="round" stroke-linejoin="round"/>
</svg>
