<svg width="32" height="32" viewBox="0 0 32 32" fill="none" xmlns="http://www.w3.org/2000/svg">
<path d="M16 32C24.8366 32 32 24.8366 32 16C32 7.16344 24.8366 0 16 0C7.16344 0 0 7.16344 0 16C0 24.8366 7.16344 32 16 32Z" fill="#95449C"/>
<path d="M16.4977 13.6655C14.9369 13.6655 13.6632 14.9392 13.6632 16.5C13.6632 18.0608 14.9369 19.3345 16.4977 19.3345C18.0585 19.3345 19.3322 18.0608 19.3322 16.5C19.3322 14.9392 18.0585 13.6655 16.4977 13.6655ZM24.9991 16.5C24.9991 15.3262 25.0097 14.163 24.9438 12.9914C24.8778 11.6305 24.5674 10.4226 23.5722 9.42747C22.575 8.43017 21.3693 8.12184 20.0084 8.05592C18.8346 7.99 17.6715 8.00063 16.4998 8.00063C15.3261 8.00063 14.1629 7.99 12.9913 8.05592C11.6304 8.12184 10.4226 8.4323 9.42745 9.42747C8.43016 10.4248 8.12184 11.6305 8.05592 12.9914C7.99 14.1652 8.00063 15.3283 8.00063 16.5C8.00063 17.6717 7.99 18.837 8.05592 20.0086C8.12184 21.3695 8.43229 22.5774 9.42745 23.5725C10.4247 24.5698 11.6304 24.8782 12.9913 24.9441C14.1651 25.01 15.3282 24.9994 16.4998 24.9994C17.6736 24.9994 18.8368 25.01 20.0084 24.9441C21.3693 24.8782 22.5771 24.5677 23.5722 23.5725C24.5695 22.5752 24.8778 21.3695 24.9438 20.0086C25.0118 18.837 24.9991 17.6738 24.9991 16.5ZM16.4977 20.8613C14.0843 20.8613 12.1365 18.9135 12.1365 16.5C12.1365 14.0865 14.0843 12.1387 16.4977 12.1387C18.9112 12.1387 20.859 14.0865 20.859 16.5C20.859 18.9135 18.9112 20.8613 16.4977 20.8613ZM21.0376 12.9786C20.4741 12.9786 20.019 12.5236 20.019 11.9601C20.019 11.3966 20.4741 10.9415 21.0376 10.9415C21.6011 10.9415 22.0561 11.3966 22.0561 11.9601C22.0563 12.0939 22.0301 12.2264 21.9789 12.35C21.9278 12.4737 21.8528 12.586 21.7582 12.6807C21.6636 12.7753 21.5512 12.8503 21.4276 12.9014C21.3039 12.9526 21.1714 12.9788 21.0376 12.9786Z" fill="white"/>
</svg>
