<svg width="19" height="20" viewBox="0 0 19 20" fill="none" xmlns="http://www.w3.org/2000/svg">
<path d="M18.8719 7.93654C19.0225 7.58939 19.041 7.19916 18.9239 6.83934C18.8067 6.47951 18.5621 6.17492 18.236 5.98291L16.4667 4.93237C16.4457 4.92108 16.4274 4.90534 16.413 4.88624C16.3987 4.86714 16.3887 4.84514 16.3838 4.82179L15.923 2.80365C15.8393 2.43582 15.6252 2.1108 15.3202 1.88883C15.0152 1.66685 14.64 1.56298 14.2643 1.59645L12.2093 1.78076C12.1864 1.78616 12.1626 1.78561 12.14 1.77916C12.1174 1.77271 12.0968 1.76056 12.0803 1.7439L10.5229 0.380041C10.2385 0.134868 9.87549 0 9.5 0C9.12451 0 8.76151 0.134868 8.47711 0.380041L6.91973 1.7439C6.90318 1.76056 6.88262 1.77271 6.86004 1.77916C6.83745 1.78561 6.81358 1.78616 6.79072 1.78076L4.73572 1.59645C4.35914 1.56132 3.9827 1.66501 3.67721 1.88801C3.37173 2.11101 3.15827 2.43796 3.07698 2.80734L2.61622 4.82547C2.61127 4.84883 2.60129 4.87083 2.58696 4.88993C2.57264 4.90903 2.55432 4.92477 2.53328 4.93606L0.763952 5.98291C0.437883 6.17492 0.19326 6.47951 0.0761475 6.83934C-0.0409653 7.19916 -0.0224877 7.58939 0.128101 7.93654L0.948257 9.83488C0.96619 9.87921 0.96619 9.92877 0.948257 9.97311L0.128101 11.8714C-0.0217372 12.2173 -0.0397878 12.606 0.0773567 12.9642C0.194501 13.3224 0.438735 13.6254 0.763952 13.8159L2.54249 14.8793C2.57997 14.9057 2.60625 14.9451 2.61622 14.9899L3.07698 17.008C3.15904 17.3767 3.37283 17.7028 3.67823 17.9251C3.98364 18.1473 4.35965 18.2505 4.73572 18.2152L6.79072 18.0217C6.81423 18.0201 6.83781 18.0234 6.86 18.0314C6.88219 18.0393 6.90252 18.0517 6.91973 18.0678L8.47711 19.4316C8.76218 19.6754 9.12492 19.8093 9.5 19.8093C9.87508 19.8093 10.2378 19.6754 10.5229 19.4316L12.0803 18.0678C12.0975 18.0517 12.1178 18.0393 12.14 18.0314C12.1622 18.0234 12.1858 18.0201 12.2093 18.0217L14.2643 18.2152C14.6403 18.2505 15.0164 18.1473 15.3218 17.9251C15.6272 17.7028 15.841 17.3767 15.923 17.008L16.3838 14.9899C16.3887 14.9665 16.3987 14.9445 16.413 14.9254C16.4274 14.9063 16.4457 14.8906 16.4667 14.8793L18.236 13.8195C18.5613 13.6291 18.8055 13.3261 18.9226 12.9679C19.0398 12.6097 19.0217 12.221 18.8719 11.8751L18.0517 9.97679C18.0338 9.93246 18.0338 9.8829 18.0517 9.83856L18.8719 7.93654ZM13.6376 8.04712L9.06688 12.7285C8.93288 12.8569 8.7549 12.9295 8.56926 12.9312C8.4238 12.9325 8.28173 12.8873 8.16379 12.8022L5.45451 10.867C5.30542 10.7594 5.20516 10.5971 5.17578 10.4156C5.1464 10.2342 5.19031 10.0485 5.29785 9.89938C5.40539 9.7503 5.56775 9.65004 5.74921 9.62066C5.93067 9.59128 6.11636 9.63519 6.26545 9.74273L8.48632 11.337L12.6516 7.07952C12.7149 7.01427 12.7904 6.96223 12.8739 6.92641C12.9574 6.89059 13.0472 6.8717 13.1381 6.87085C13.229 6.86999 13.3191 6.88718 13.4033 6.92142C13.4874 6.95566 13.564 7.00626 13.6284 7.07031C13.7582 7.19915 13.8319 7.37396 13.8337 7.55682C13.8354 7.73968 13.765 7.91585 13.6376 8.04712Z" fill="#4266B2"/>
</svg>
