<svg width="24" height="24" viewBox="0 0 24 24" fill="none" xmlns="http://www.w3.org/2000/svg">
<path d="M22.8643 9.61552C23.0467 9.19493 23.0691 8.72215 22.9272 8.2862C22.7853 7.85026 22.4889 7.48122 22.0939 7.24859L19.9503 5.97582C19.9248 5.96214 19.9026 5.94307 19.8852 5.91993C19.8679 5.89679 19.8558 5.87014 19.8498 5.84184L19.2915 3.39676C19.1902 2.95112 18.9307 2.55734 18.5611 2.28841C18.1916 2.01948 17.7371 1.89363 17.2819 1.93418L14.7922 2.15748C14.7645 2.16403 14.7355 2.16336 14.7082 2.15554C14.6808 2.14772 14.6559 2.13301 14.6359 2.11282L12.749 0.460439C12.4045 0.163399 11.9647 0 11.5097 0C11.0548 0 10.615 0.163399 10.2704 0.460439L8.38361 2.11282C8.36355 2.13301 8.33865 2.14772 8.31128 2.15554C8.28391 2.16336 8.255 2.16403 8.2273 2.15748L5.73757 1.93418C5.28132 1.89162 4.82524 2.01724 4.45513 2.28742C4.08502 2.5576 3.8264 2.95371 3.72791 3.40123L3.16968 5.8463C3.16369 5.8746 3.15159 5.90125 3.13424 5.9244C3.11688 5.94754 3.09469 5.96661 3.0692 5.98028L0.925567 7.24859C0.530517 7.48122 0.234145 7.85026 0.0922566 8.2862C-0.0496315 8.72215 -0.027245 9.19493 0.155201 9.61552L1.14886 11.9155C1.17059 11.9692 1.17059 12.0292 1.14886 12.0829L0.155201 14.3829C-0.0263357 14.8018 -0.0482049 15.2728 0.0937216 15.7068C0.235648 16.1408 0.53155 16.5078 0.925567 16.7386L3.08036 18.027C3.12576 18.059 3.1576 18.1068 3.16968 18.161L3.72791 20.6061C3.82734 21.0528 4.08636 21.4478 4.45637 21.7171C4.82638 21.9864 5.28194 22.1114 5.73757 22.0687L8.2273 21.8342C8.25579 21.8323 8.28436 21.8363 8.31124 21.8459C8.33813 21.8555 8.36275 21.8705 8.38361 21.89L10.2704 23.5424C10.6158 23.8377 11.0553 24 11.5097 24C11.9642 24 12.4036 23.8377 12.749 23.5424L14.6359 21.89C14.6567 21.8705 14.6813 21.8555 14.7082 21.8459C14.7351 21.8363 14.7637 21.8323 14.7922 21.8342L17.2819 22.0687C17.7375 22.1114 18.1931 21.9864 18.5631 21.7171C18.9331 21.4478 19.1921 21.0528 19.2915 20.6061L19.8498 18.161C19.8558 18.1327 19.8679 18.1061 19.8852 18.0829C19.9026 18.0598 19.9248 18.0407 19.9503 18.027L22.0939 16.7431C22.4879 16.5123 22.7838 16.1453 22.9257 15.7113C23.0677 15.2773 23.0458 14.8063 22.8643 14.3873L21.8706 12.0874C21.8489 12.0337 21.8489 11.9736 21.8706 11.9199L22.8643 9.61552ZM16.5227 9.74949L10.985 15.4212C10.8226 15.5768 10.607 15.6647 10.3821 15.6668C10.2059 15.6684 10.0337 15.6137 9.89085 15.5105L6.60842 13.1659C6.42779 13.0356 6.30632 12.8389 6.27072 12.6191C6.23513 12.3992 6.28833 12.1742 6.41861 11.9936C6.5489 11.813 6.74561 11.6915 6.96545 11.6559C7.1853 11.6203 7.41029 11.6735 7.59091 11.8038L10.2816 13.7353L15.3281 8.5772C15.4047 8.49815 15.4962 8.4351 15.5974 8.3917C15.6986 8.3483 15.8074 8.32542 15.9175 8.32438C16.0276 8.32334 16.1367 8.34417 16.2387 8.38565C16.3407 8.42713 16.4334 8.48844 16.5115 8.56603C16.6688 8.72214 16.7581 8.93393 16.7602 9.15547C16.7623 9.37702 16.6769 9.59045 16.5227 9.74949Z" fill="#4266B2"/>
</svg>
